<?xml version="1.0" standalone="no"?>
<!DOCTYPE svg PUBLIC "-//W3C//DTD SVG 20010904//EN"
 "http://www.w3.org/TR/2001/REC-SVG-20010904/DTD/svg10.dtd">
<svg version="1.0" xmlns="http://www.w3.org/2000/svg"
 width="512.000000pt" height="512.000000pt" viewBox="0 0 512.000000 512.000000"
 preserveAspectRatio="xMidYMid meet">
<metadata>
Created by potrace 1.16, written by Peter Selinger 2001-2019
</metadata>
<g transform="translate(0.000000,512.000000) scale(0.100000,-0.100000)"
fill="#000000" stroke="none">
<path d="M1280 4590 l0 -110 -57 0 c-165 -1 -368 -84 -514 -211 -117 -101
-217 -265 -260 -425 -29 -107 -31 -317 -5 -417 42 -160 106 -276 214 -389 128
-134 285 -220 460 -254 40 -8 131 -14 202 -14 l128 0 23 -37 c42 -71 147 -199
208 -255 161 -149 362 -258 569 -309 l92 -22 0 -219 0 -218 -403 0 -402 0
-158 -632 c-87 -348 -157 -639 -157 -645 0 -19 2680 -19 2680 0 0 6 -70 297
-157 645 l-158 632 -402 0 -403 0 0 218 0 219 93 22 c305 75 586 274 760 538
l41 63 126 0 c284 0 466 72 650 259 121 122 182 231 226 401 27 106 25 304 -5
414 -93 348 -402 611 -742 633 l-89 6 0 108 0 109 -1280 0 -1280 0 0 -110z m0
-919 c0 -208 3 -398 6 -423 l6 -45 -58 8 c-152 19 -271 105 -336 245 -91 194
-10 433 181 537 49 27 138 55 179 56 l22 1 0 -379z m2642 368 c242 -52 390
-298 318 -531 -49 -160 -189 -278 -352 -297 l-60 -8 6 45 c3 25 6 215 6 423 0
325 2 379 15 379 7 0 38 -5 67 -11z"/>
</g>
</svg>
